<?xml version="1.0" encoding="UTF-8" standalone="no"?><!DOCTYPE svg PUBLIC "-//W3C//DTD SVG 1.1//EN" "http://www.w3.org/Graphics/SVG/1.1/DTD/svg11.dtd"><svg width="1165px" height="381px" version="1.1" xmlns="http://www.w3.org/2000/svg" xmlns:xlink="http://www.w3.org/1999/xlink" xml:space="preserve" xmlns:serif="http://www.serif.com/" style="fill-rule:evenodd;clip-rule:evenodd;stroke-linejoin:round;stroke-miterlimit:2;"><g transform="matrix(1,0,0,1,-1148.001809,-1766.972297)"><g transform="matrix(1.363297,0,0,1.363297,-857.118171,315.326322)"><path d="M2261,1075C2261,1074 2260,1073 2259,1073C2259,1073 2258,1074 2258,1075C2251,1101 2230,1122 2204,1129C2203,1129 2202,1130 2202,1130C2202,1131 2203,1132 2204,1132C2230,1138 2251,1159 2258,1186C2258,1187 2259,1187 2259,1187C2260,1187 2261,1187 2261,1186C2268,1159 2289,1138 2315,1132C2316,1132 2316,1131 2316,1130C2316,1130 2316,1129 2315,1129C2289,1122 2268,1101 2261,1075Z" style="fill:rgb(26,64,209);"/></g><g transform="matrix(1.07182,0,0,1.07182,-106.605639,257.62117)"><path d="M1171,1763L1171,1514L1241,1514L1241,1707L1360,1707L1360,1763L1171,1763Z" style="fill:rgb(26,64,209);fill-rule:nonzero;"/></g><g transform="matrix(1.07182,0,0,1.07182,-106.605639,257.62117)"><path d="M1500,1763C1463,1763 1434,1753 1414,1733C1393,1713 1383,1689 1383,1652L1383,1514L1453,1514L1453,1650C1453,1671 1457,1682 1466,1691C1474,1700 1486,1705 1500,1705C1515,1705 1527,1700 1535,1691C1543,1682 1547,1671 1547,1650L1547,1514L1617,1514L1617,1652C1617,1689 1606,1713 1586,1733C1565,1753 1536,1763 1500,1763Z" style="fill:rgb(26,64,209);fill-rule:nonzero;"/></g><g transform="matrix(1.07182,0,0,1.07182,-106.605639,257.62117)"><path d="M1766,1686L1716,1763L1635,1763L1726,1637L1639,1514L1718,1514L1768,1586L1817,1514L1893,1514L1807,1634L1899,1763L1818,1763L1766,1686Z" style="fill:rgb(26,64,209);"/></g><g transform="matrix(1.07182,0,0,1.07182,-106.605639,257.62117)"><path d="M1986,1697L1986,1763L1916,1763L1916,1514L2027,1514C2063,1514 2091,1522 2111,1539C2130,1555 2140,1577 2140,1606C2140,1625 2135,1641 2126,1654C2118,1667 2106,1677 2091,1684L2145,1763L2070,1763L2024,1697L1986,1697ZM1986,1642L2025,1642C2040,1642 2051,1639 2058,1633C2065,1626 2069,1617 2069,1606C2069,1594 2065,1585 2058,1579C2051,1573 2040,1569 2025,1569L1986,1569L1986,1642Z" style="fill:rgb(26,64,209);"/></g></g></svg>